# Blender v2.91.0 OBJ File: ''
# www.blender.org
o Cube.001
v 2.910000 0.727500 -3.000000
v 2.910000 0.750000 -2.910000
v 3.000000 0.727500 -2.910000
v 2.910000 -0.750000 -2.910000
v 2.910000 -0.727500 -3.000000
v 3.000000 -0.727500 -2.910000
v 3.000000 0.727500 2.910000
v 2.910000 0.750000 2.910000
v 2.910000 0.727500 3.000000
v 3.000000 -0.727500 2.910000
v 2.910000 -0.727500 3.000000
v 2.910000 -0.750000 2.910000
v -2.910000 0.727500 -3.000000
v -3.000000 0.727500 -2.910000
v -2.910000 0.750000 -2.910000
v -3.000000 -0.727500 -2.910000
v -2.910000 -0.727500 -3.000000
v -2.910000 -0.750000 -2.910000
v -3.000000 0.727500 2.910000
v -2.910000 0.727500 3.000000
v -2.910000 0.750000 2.910000
v -2.910000 -0.750000 2.910000
v -2.910000 -0.727500 3.000000
v -3.000000 -0.727500 2.910000
vt 0.446788 0.547071
vt 0.770121 0.223738
vt 0.770121 0.547071
vt 0.995614 0.992969
vt 0.679769 0.661970
vt 0.995614 0.661970
vt 0.808910 0.992896
vt 0.485449 0.669436
vt 0.808910 0.669436
vt 0.845330 0.627122
vt 0.521997 0.303789
vt 0.845330 0.303789
vt 0.353604 0.992696
vt 0.049957 0.674480
vt 0.353604 0.674480
vt 0.138606 0.992027
vt 0.138606 0.999959
vt 0.131037 0.992027
vt 0.446788 0.552071
vt 0.441788 0.547071
vt 0.049958 0.992696
vt 0.049958 0.997617
vt 0.045262 0.992696
vt 0.045262 0.674480
vt 0.049957 0.669560
vt 0.628048 0.992027
vt 0.635617 0.992027
vt 0.628048 0.999959
vt 0.674885 0.661970
vt 0.679769 0.656852
vt 1.000498 0.992969
vt 0.995614 0.998088
vt 0.770121 0.218738
vt 0.775121 0.223738
vt 0.775121 0.547071
vt 0.358299 0.992696
vt 0.485449 0.992896
vt 0.480448 0.669436
vt 0.813912 0.992896
vt 0.628048 0.479101
vt 0.521997 0.627122
vt 0.516997 0.303789
vt 0.845330 0.298789
vt 0.446788 0.223738
vt 0.521997 0.632122
vt 0.850330 0.627122
vt 0.441788 0.223738
vt 0.138606 0.479101
vt 0.679769 0.992969
vt 0.770121 0.552071
vt 0.358299 0.674480
vt 0.480447 0.992896
vt 0.813912 0.669436
vt 0.635617 0.479101
vt 0.516997 0.627122
vt 0.521997 0.298789
vt 0.446788 0.218738
vt 0.845330 0.632122
vt 0.850330 0.303789
vn 0.0000 -1.0000 0.0000
vn -1.0000 0.0000 0.0000
vn 0.0000 0.0000 1.0000
vn 0.0000 1.0000 0.0000
vn 1.0000 0.0000 0.0000
vn 0.2357 0.9428 -0.2357
vn 0.2357 -0.9428 -0.2357
vn 0.2357 0.9428 0.2357
vn 0.2357 -0.9428 0.2357
vn -0.2357 0.9428 -0.2357
vn -0.2357 -0.9428 -0.2357
vn -0.2357 0.9428 0.2357
vn -0.2357 -0.9428 0.2357
vn -0.2425 -0.9701 0.0000
vn 0.0000 -0.9701 -0.2425
vn 0.7071 0.0000 -0.7071
vn -0.7071 0.0000 0.7071
vn 0.7071 0.0000 0.7071
vn -0.7071 0.0000 -0.7071
vn 0.0000 0.9701 0.2425
vn 0.2425 0.9701 0.0000
vn 0.0000 -0.9701 0.2425
vn -0.2425 0.9701 0.0000
vn 0.0000 0.9701 -0.2425
vn 0.2425 -0.9701 0.0000
vn 0.0000 0.0000 -1.0000
s 1
f 4/1/1 22/2/1 18/3/1
f 19/4/2 16/5/2 24/6/2
f 9/7/3 23/8/3 11/9/3
f 15/10/4 8/11/4 2/12/4
f 3/13/5 10/14/5 6/15/5
f 1/16/6 2/17/6 3/18/6
f 4/1/7 5/19/7 6/20/7
f 7/21/8 8/22/8 9/23/8
f 10/14/9 11/24/9 12/25/9
f 13/26/10 14/27/10 15/28/10
f 16/5/11 17/29/11 18/30/11
f 19/4/12 20/31/12 21/32/12
f 22/2/13 23/33/13 24/34/13
f 22/2/14 16/35/14 18/3/14
f 18/3/15 5/19/15 4/1/15
f 6/15/16 1/36/16 3/13/16
f 20/37/17 24/38/17 23/8/17
f 11/9/18 7/39/18 9/7/18
f 17/40/19 14/27/19 13/26/19
f 21/41/20 9/42/20 8/11/20
f 8/11/21 3/43/21 2/12/21
f 12/44/22 23/33/22 22/2/22
f 15/10/23 19/45/23 21/41/23
f 2/12/24 13/46/24 15/10/24
f 4/1/25 10/47/25 12/44/25
f 13/26/26 5/48/26 17/40/26
f 4/1/1 12/44/1 22/2/1
f 19/4/2 14/49/2 16/5/2
f 9/7/3 20/37/3 23/8/3
f 15/10/4 21/41/4 8/11/4
f 3/13/5 7/21/5 10/14/5
f 22/2/14 24/34/14 16/35/14
f 18/3/15 17/50/15 5/19/15
f 6/15/16 5/51/16 1/36/16
f 20/37/17 19/52/17 24/38/17
f 11/9/18 10/53/18 7/39/18
f 17/40/19 16/54/19 14/27/19
f 21/41/20 20/55/20 9/42/20
f 8/11/21 7/56/21 3/43/21
f 12/44/22 11/57/22 23/33/22
f 15/10/23 14/58/23 19/45/23
f 2/12/24 1/59/24 13/46/24
f 4/1/25 6/20/25 10/47/25
f 13/26/26 1/16/26 5/48/26
